<svg width="72" height="72" viewBox="0 0 72 72" fill="none" xmlns="http://www.w3.org/2000/svg">
<mask id="mask0_26006_8412" style="mask-type:luminance" maskUnits="userSpaceOnUse" x="0" y="2" width="72" height="70">
<path d="M0 2H72V72H0V2Z" fill="white"/>
</mask>
<g mask="url(#mask0_26006_8412)">
<path d="M40 17C37.2422 17 34.5115 17.5432 31.9636 18.5985C29.4158 19.6539 27.1008 21.2007 25.1508 23.1508C23.2007 25.1008 21.6539 27.4158 20.5985 29.9636C19.5432 32.5115 19 35.2422 19 38C19 40.7578 19.5432 43.4885 20.5985 46.0364C21.6539 48.5842 23.2007 50.8992 25.1508 52.8492C27.1008 54.7993 29.4158 56.3461 31.9636 57.4015C34.5115 58.4568 37.2422 59 40 59C45.5695 59 50.911 56.7875 54.8492 52.8492C58.7875 48.911 61 43.5695 61 38C61 32.4305 58.7875 27.089 54.8492 23.1508C50.911 19.2125 45.5695 17 40 17ZM17 38C17 34.9796 17.5949 31.9888 18.7508 29.1983C19.9066 26.4078 21.6008 23.8723 23.7365 21.7365C25.8723 19.6008 28.4078 17.9066 31.1983 16.7508C33.9888 15.5949 36.9796 15 40 15C43.0204 15 46.0112 15.5949 48.8017 16.7508C51.5922 17.9066 54.1277 19.6008 56.2635 21.7365C58.3992 23.8723 60.0934 26.4078 61.2492 29.1983C62.4051 31.9888 63 34.9796 63 38C63 44.1 60.5768 49.9501 56.2635 54.2635C51.9501 58.5768 46.1 61 40 61C33.9 61 28.0499 58.5768 23.7365 54.2635C19.4232 49.9501 17 44.1 17 38Z" fill="url(#paint0_linear_26006_8412)"/>
<g filter="url(#filter0_f_26006_8412)">
<path d="M62 38C62 43.8348 59.6822 49.4305 55.5564 53.5564C51.4305 57.6822 45.8348 60 40 60C34.1652 60 28.5695 57.6822 24.4437 53.5564C20.3179 49.4305 18 43.8348 18 38C18 32.1652 20.3179 26.5695 24.4437 22.4437C28.5695 18.3179 34.1652 16 40 16C45.8348 16 51.4305 18.3179 55.5564 22.4437C59.6822 26.5695 62 32.1652 62 38Z" fill="url(#paint1_linear_26006_8412)" fill-opacity="0.3"/>
</g>
<g filter="url(#filter1_f_26006_8412)">
<path d="M40 17C37.2422 17 34.5115 17.5432 31.9636 18.5985C29.4158 19.6539 27.1008 21.2007 25.1508 23.1508C23.2007 25.1008 21.6539 27.4158 20.5985 29.9636C19.5432 32.5115 19 35.2422 19 38C19 40.7578 19.5432 43.4885 20.5985 46.0364C21.6539 48.5842 23.2007 50.8992 25.1508 52.8492C27.1008 54.7993 29.4158 56.3461 31.9636 57.4015C34.5115 58.4568 37.2422 59 40 59C45.5695 59 50.911 56.7875 54.8492 52.8492C58.7875 48.911 61 43.5695 61 38C61 32.4305 58.7875 27.089 54.8492 23.1508C50.911 19.2125 45.5695 17 40 17ZM17 38C17 34.9796 17.5949 31.9888 18.7508 29.1983C19.9066 26.4078 21.6008 23.8723 23.7365 21.7365C25.8723 19.6008 28.4078 17.9066 31.1983 16.7508C33.9888 15.5949 36.9796 15 40 15C43.0204 15 46.0112 15.5949 48.8017 16.7508C51.5922 17.9066 54.1277 19.6008 56.2635 21.7365C58.3992 23.8723 60.0934 26.4078 61.2492 29.1983C62.4051 31.9888 63 34.9796 63 38C63 44.1 60.5768 49.9501 56.2635 54.2635C51.9501 58.5768 46.1 61 40 61C33.9 61 28.0499 58.5768 23.7365 54.2635C19.4232 49.9501 17 44.1 17 38Z" fill="url(#paint2_linear_26006_8412)"/>
</g>
</g>
<defs>
<filter id="filter0_f_26006_8412" x="0" y="-2" width="80" height="80" filterUnits="userSpaceOnUse" color-interpolation-filters="sRGB">
<feFlood flood-opacity="0" result="BackgroundImageFix"/>
<feBlend mode="normal" in="SourceGraphic" in2="BackgroundImageFix" result="shape"/>
<feGaussianBlur stdDeviation="9" result="effect1_foregroundBlur_26006_8412"/>
</filter>
<filter id="filter1_f_26006_8412" x="7" y="5" width="66" height="66" filterUnits="userSpaceOnUse" color-interpolation-filters="sRGB">
<feFlood flood-opacity="0" result="BackgroundImageFix"/>
<feBlend mode="normal" in="SourceGraphic" in2="BackgroundImageFix" result="shape"/>
<feGaussianBlur stdDeviation="5" result="effect1_foregroundBlur_26006_8412"/>
</filter>
<linearGradient id="paint0_linear_26006_8412" x1="98" y1="-13" x2="18" y2="58" gradientUnits="userSpaceOnUse">
<stop offset="0.5" stop-color="#2962FF"/>
<stop offset="1" stop-color="#D500F9"/>
</linearGradient>
<linearGradient id="paint1_linear_26006_8412" x1="98" y1="-13" x2="18" y2="58" gradientUnits="userSpaceOnUse">
<stop offset="0.5" stop-color="#2962FF"/>
<stop offset="1" stop-color="#D500F9"/>
</linearGradient>
<linearGradient id="paint2_linear_26006_8412" x1="98" y1="-13" x2="18" y2="58" gradientUnits="userSpaceOnUse">
<stop offset="0.5" stop-color="#2962FF"/>
<stop offset="1" stop-color="#D500F9"/>
</linearGradient>
</defs>
</svg>
