<svg width="188" height="32" viewBox="0 0 188 32" fill="none" xmlns="http://www.w3.org/2000/svg">
<g clip-path="url(#clip0_6032_480)">
<path d="M46.7352 25.2909H50.429V10.8188H55.2615V7.32727H41.9534V10.8188H46.7352V25.2909Z" fill="white"/>
<path d="M55.2669 25.2908H58.7331V19.2439C58.7331 17.1439 59.821 15.8788 61.4656 15.8788C62.0474 15.8788 62.5029 15.9801 63.0342 16.1573V12.6404C62.6041 12.5139 62.2499 12.4886 61.8704 12.4886C60.4535 12.4886 59.1632 13.4247 58.7331 14.6645V12.6404H55.2669V25.2908Z" fill="white"/>
<path d="M69.6871 25.5691C71.4329 25.5691 72.7485 24.6836 73.3305 23.874V25.2908H76.7967V12.6404H73.3305V14.0572C72.7485 13.2476 71.4329 12.3621 69.6871 12.3621C66.3221 12.3621 63.7414 15.3982 63.7414 18.9656C63.7414 22.533 66.3221 25.5691 69.6871 25.5691ZM70.4208 22.4065C68.498 22.4065 67.2329 20.9644 67.2329 18.9656C67.2329 16.9669 68.498 15.5247 70.4208 15.5247C72.3437 15.5247 73.6088 16.9669 73.6088 18.9656C73.6088 20.9644 72.3437 22.4065 70.4208 22.4065Z" fill="white"/>
<path d="M85.0494 25.5691C86.7951 25.5691 88.1107 24.6836 88.6927 23.874V25.2908H92.1589V6.31525H88.6927V14.0572C88.1107 13.2476 86.7951 12.3621 85.0494 12.3621C81.6844 12.3621 79.1038 15.3982 79.1038 18.9656C79.1038 22.533 81.6844 25.5691 85.0494 25.5691ZM85.7831 22.4065C83.8602 22.4065 82.5953 20.9644 82.5953 18.9656C82.5953 16.9669 83.8602 15.5247 85.7831 15.5247C87.7059 15.5247 88.971 16.9669 88.971 18.9656C88.971 20.9644 87.7059 22.4065 85.7831 22.4065Z" fill="white"/>
<path d="M96.9961 10.5658C98.2358 10.5658 99.2226 9.57905 99.2226 8.36462C99.2226 7.15019 98.2358 6.16345 96.9961 6.16345C95.8069 6.16345 94.795 7.15019 94.795 8.36462C94.795 9.57905 95.8069 10.5658 96.9961 10.5658ZM95.2756 25.2909H98.7418V12.6404H95.2756V25.2909Z" fill="white"/>
<path d="M101.817 25.2908H105.284V19.1175C105.284 16.6886 106.473 15.5247 108.092 15.5247C109.534 15.5247 110.318 16.6379 110.318 18.4597V25.2908H113.785V17.8777C113.785 14.5885 111.963 12.3621 108.902 12.3621C107.257 12.3621 105.967 13.0706 105.284 14.0826V12.6404H101.817V25.2908Z" fill="white"/>
<path d="M122.605 22.0017C120.859 22.0017 119.392 20.6861 119.392 18.7632C119.392 16.8151 120.859 15.5247 122.605 15.5247C124.351 15.5247 125.819 16.8151 125.819 18.7632C125.819 20.6861 124.351 22.0017 122.605 22.0017ZM122.2 30.8317C126.071 30.8317 129.006 28.8582 129.006 24.3041V12.6404H125.54V14.0572C124.857 13.0706 123.491 12.3621 121.871 12.3621C118.557 12.3621 115.901 15.1958 115.901 18.7632C115.901 22.3053 118.557 25.1389 121.871 25.1389C123.491 25.1389 124.857 24.4053 125.54 23.4691V24.3293C125.54 26.3534 124.199 27.7956 122.15 27.7956C120.733 27.7956 119.316 27.3148 118.203 26.2269L116.305 28.8076C117.747 30.1992 119.999 30.8317 122.2 30.8317Z" fill="white"/>
<path d="M136.335 25.2909H139.598L147.037 7.32727H142.989L137.98 19.8005L132.895 7.32727H128.921L136.335 25.2909Z" fill="white"/>
<path d="M150.217 10.5658C151.457 10.5658 152.445 9.57905 152.445 8.36462C152.445 7.15019 151.457 6.16345 150.217 6.16345C149.028 6.16345 148.017 7.15019 148.017 8.36462C148.017 9.57905 149.028 10.5658 150.217 10.5658ZM148.497 25.2909H151.964V12.6404H148.497V25.2909Z" fill="white"/>
<path d="M160.934 25.5691C163.591 25.5691 165.614 24.4559 166.803 22.7354L164.224 20.8126C163.641 21.6981 162.553 22.4065 160.959 22.4065C159.289 22.4065 157.796 21.4704 157.594 19.7753H167.056C167.132 19.244 167.107 18.8897 167.107 18.5862C167.107 14.462 164.197 12.3621 160.883 12.3621C157.038 12.3621 154.229 15.2211 154.229 18.9656C154.229 22.9632 157.164 25.5691 160.934 25.5691ZM157.72 17.4222C158.05 15.8789 159.492 15.2211 160.782 15.2211C162.072 15.2211 163.337 15.9043 163.641 17.4222H157.72Z" fill="white"/>
<path d="M180.093 25.2908H183.534L187.709 12.6404H183.99L181.612 20.7366L179.031 12.6404H176.374L173.819 20.7366L171.415 12.6404H167.721L171.921 25.2908H175.363L177.715 18.1054L180.093 25.2908Z" fill="white"/>
<path fill-rule="evenodd" clip-rule="evenodd" d="M13.9809 25.2994H7.32336V13.9815H3.05176e-05V7.32391H13.9809V25.2994ZM23.9673 11.3185C23.9673 13.5245 22.1789 15.313 19.9728 15.313C17.7666 15.313 15.9782 13.5245 15.9782 11.3185C15.9782 9.11233 17.7666 7.32391 19.9728 7.32391C22.1789 7.32391 23.9673 9.11233 23.9673 11.3185ZM19.9728 25.2994L27.629 7.32391H35.618L27.9618 25.2994H19.9728Z" fill="white"/>
</g>
<defs>
<clipPath id="clip0_6032_480">
<rect width="187.767" height="32" fill="white"/>
</clipPath>
</defs>
</svg>
