<svg width="88" height="80" viewBox="0 0 88 80" fill="none" xmlns="http://www.w3.org/2000/svg">
<path d="M44.7501 16.34C44.6534 16.2292 44.5333 16.141 44.3986 16.0819C44.2639 16.0228 44.1178 15.9941 43.9707 15.9979C43.8236 16.0017 43.6792 16.0379 43.5477 16.104C43.4162 16.1701 43.301 16.2643 43.2101 16.38L23.5801 41.38C23.4462 41.5489 23.3704 41.7564 23.364 41.9718C23.3576 42.1871 23.421 42.3988 23.5446 42.5753C23.6682 42.7517 23.8456 42.8835 24.0502 42.9511C24.2548 43.0186 24.4757 43.0182 24.6801 42.95L38.8801 38.12L50.7301 47.77C50.891 47.9026 51.0893 47.9816 51.2973 47.996C51.5053 48.0103 51.7125 47.9593 51.8901 47.85L64.1601 40.35C64.2824 40.2738 64.3868 40.1721 64.4662 40.0517C64.5455 39.9314 64.5979 39.7953 64.6197 39.6529C64.6416 39.5104 64.6324 39.3649 64.5927 39.2264C64.5531 39.0878 64.484 38.9594 64.3901 38.85L44.7501 16.35V16.34ZM27.2301 39.97L44.0401 18.57L62.1101 39.27L51.4501 45.77L39.7201 36.22C39.589 36.1139 39.4331 36.0426 39.267 36.0129C39.1009 35.9831 38.9299 35.9959 38.7701 36.05L27.2301 39.97ZM26.0001 47.67L16.2001 61.42C16.0943 61.5686 16.0311 61.7433 16.0175 61.9251C16.0038 62.107 16.0401 62.2892 16.1225 62.4519C16.2049 62.6146 16.3302 62.7517 16.4849 62.8483C16.6396 62.9449 16.8177 62.9974 17.0001 63H71.0001C71.1842 63.001 71.3649 62.9512 71.5225 62.856C71.6801 62.7609 71.8083 62.6241 71.8931 62.4607C71.9779 62.2973 72.0159 62.1137 72.0031 61.9301C71.9902 61.7465 71.9269 61.57 71.8201 61.42L62.0001 47.67L60.3701 48.83L69.0601 61H18.9401L27.6401 48.83L26.0001 47.67Z" fill="url(#paint0_linear_26006_8415)"/>
<g filter="url(#filter0_f_26006_8415)">
<path d="M26.5399 39.2202L42.5099 18.9002C42.6916 18.6688 42.9221 18.4803 43.1851 18.3481C43.448 18.216 43.7369 18.1436 44.0311 18.1359C44.3252 18.1283 44.6175 18.1857 44.8869 18.3039C45.1564 18.4222 45.3964 18.5985 45.5899 18.8202L61.9999 37.6202C62.1965 37.8459 62.3401 38.1128 62.4199 38.4012C62.4997 38.6897 62.5137 38.9925 62.4609 39.2871C62.4081 39.5817 62.2899 39.8607 62.1149 40.1036C61.9399 40.3464 61.7126 40.5469 61.4499 40.6902L59.6099 41.7002C59.3633 41.8351 59.1479 42.0204 58.9777 42.2441C58.8076 42.4677 58.6865 42.7248 58.6223 42.9984C58.5581 43.272 58.5524 43.5561 58.6054 43.8321C58.6584 44.1081 58.7689 44.3698 58.9299 44.6002L68.8299 58.8602C69.0388 59.1614 69.161 59.5142 69.183 59.8801C69.205 60.246 69.1261 60.611 68.9547 60.935C68.7834 61.2591 68.5263 61.5299 68.2116 61.7177C67.8968 61.9056 67.5364 62.0033 67.1699 62.0002H20.6999C20.3389 62.0002 19.9846 61.9024 19.6746 61.7173C19.3647 61.5322 19.1107 61.2666 18.9394 60.9488C18.7682 60.6309 18.6862 60.2727 18.7021 59.912C18.7181 59.5514 18.8313 59.2017 19.0299 58.9002L29.1999 43.4702C29.8499 42.4702 28.9999 41.1902 27.8399 41.3902C27.5693 41.4402 27.2898 41.4063 27.0391 41.293C26.7883 41.1797 26.5781 40.9925 26.4367 40.7564C26.2953 40.5204 26.2294 40.2467 26.2478 39.9722C26.2662 39.6976 26.3681 39.4353 26.5399 39.2202Z" fill="url(#paint1_linear_26006_8415)" fill-opacity="0.3"/>
</g>
<g filter="url(#filter1_f_26006_8415)">
<path d="M44.8298 19.4801C44.7331 19.371 44.6137 19.2844 44.4799 19.2263C44.3461 19.1683 44.2013 19.1401 44.0555 19.144C43.9098 19.1478 43.7666 19.1834 43.636 19.2484C43.5055 19.3134 43.3908 19.4061 43.2998 19.5201L27.3298 39.8401C27.1298 40.1001 27.3498 40.4601 27.6698 40.4101C28.1209 40.3318 28.585 40.3868 29.0051 40.5686C29.4253 40.7504 29.7832 41.0509 30.0349 41.4332C30.2866 41.8156 30.4212 42.2632 30.4221 42.7209C30.4229 43.1787 30.2901 43.6268 30.0398 44.0101L19.8798 59.4601C19.7838 59.6097 19.7294 59.7821 19.7222 59.9596C19.715 60.1372 19.7552 60.3135 19.8387 60.4703C19.9222 60.6272 20.046 60.759 20.1974 60.8521C20.3487 60.9452 20.5222 60.9963 20.6998 61.0001H67.1698C67.3523 60.9998 67.5311 60.9496 67.6871 60.8549C67.843 60.7603 67.9701 60.6248 68.0546 60.4631C68.139 60.3014 68.1777 60.1196 68.1662 59.9376C68.1548 59.7555 68.0938 59.58 67.9898 59.4301L58.0898 45.1701C57.8488 44.8239 57.6836 44.4307 57.6048 44.0163C57.526 43.6018 57.5356 43.1754 57.6328 42.7649C57.73 42.3544 57.9126 41.969 58.1689 41.6339C58.4251 41.2988 58.7492 41.0215 59.1198 40.8201L60.9598 39.8201C61.0924 39.749 61.2073 39.649 61.2958 39.5273C61.3844 39.4057 61.4443 39.2657 61.4713 39.1176C61.4982 38.9696 61.4913 38.8174 61.4513 38.6724C61.4112 38.5274 61.3389 38.3933 61.2398 38.2801L44.8198 19.4801H44.8298ZM41.7298 18.2801C42.0025 17.9347 42.3478 17.6534 42.7413 17.4563C43.1348 17.2592 43.5668 17.1511 44.0067 17.1397C44.4467 17.1282 44.8837 17.2137 45.2869 17.3901C45.6901 17.5664 46.0496 17.8293 46.3398 18.1601L62.7498 36.9601C63.046 37.2983 63.2624 37.6987 63.383 38.1317C63.5036 38.5648 63.5253 39.0194 63.4466 39.462C63.3679 39.9046 63.1907 40.3238 62.9282 40.6887C62.6656 41.0536 62.3245 41.3548 61.9298 41.5701L60.0898 42.5701C59.9651 42.6374 59.856 42.7305 59.77 42.8431C59.6839 42.9557 59.6228 43.0854 59.5906 43.2234C59.5585 43.3615 59.556 43.5048 59.5835 43.6439C59.6109 43.783 59.6676 43.9146 59.7498 44.0301L69.6498 58.2901C69.9628 58.7412 70.1459 59.2695 70.1794 59.8175C70.2128 60.3654 70.0952 60.9121 69.8394 61.3979C69.5837 61.8836 69.1995 62.2899 68.7288 62.5724C68.2581 62.8549 67.7188 63.0029 67.1698 63.0001H20.7098C20.1687 62.9991 19.638 62.8518 19.1738 62.5738C18.7096 62.2957 18.3292 61.8973 18.073 61.4207C17.8168 60.9441 17.6942 60.4071 17.7183 59.8666C17.7424 59.326 17.9122 58.802 18.2098 58.3501L28.3698 42.9201C28.4091 42.8625 28.4303 42.7945 28.4307 42.7247C28.4311 42.655 28.4106 42.5867 28.3719 42.5287C28.3333 42.4707 28.2781 42.4255 28.2136 42.3991C28.1491 42.3726 28.0781 42.366 28.0098 42.3801C27.5411 42.4621 27.0585 42.3998 26.6259 42.2015C26.1933 42.0032 25.8311 41.6782 25.5872 41.2696C25.3433 40.8609 25.2293 40.3879 25.2601 39.913C25.2909 39.4381 25.4652 38.9838 25.7598 38.6101L41.7198 18.2801H41.7298Z" fill="url(#paint2_linear_26006_8415)"/>
</g>
<defs>
<filter id="filter0_f_26006_8415" x="0.700195" y="0.135254" width="86.4863" height="79.8652" filterUnits="userSpaceOnUse" color-interpolation-filters="sRGB">
<feFlood flood-opacity="0" result="BackgroundImageFix"/>
<feBlend mode="normal" in="SourceGraphic" in2="BackgroundImageFix" result="shape"/>
<feGaussianBlur stdDeviation="9" result="effect1_foregroundBlur_26006_8415"/>
</filter>
<filter id="filter1_f_26006_8415" x="7.71533" y="7.13867" width="72.4697" height="65.8613" filterUnits="userSpaceOnUse" color-interpolation-filters="sRGB">
<feFlood flood-opacity="0" result="BackgroundImageFix"/>
<feBlend mode="normal" in="SourceGraphic" in2="BackgroundImageFix" result="shape"/>
<feGaussianBlur stdDeviation="5" result="effect1_foregroundBlur_26006_8415"/>
</filter>
<linearGradient id="paint0_linear_26006_8415" x1="72.0001" y1="21.75" x2="33.1101" y2="69.84" gradientUnits="userSpaceOnUse">
<stop stop-color="#00BCE6"/>
<stop offset="0.5" stop-color="#2962FF"/>
<stop offset="1" stop-color="#D500F9"/>
</linearGradient>
<linearGradient id="paint1_linear_26006_8415" x1="115.18" y1="-12.6598" x2="32.9399" y2="74.9202" gradientUnits="userSpaceOnUse">
<stop offset="0.5" stop-color="#2962FF"/>
<stop offset="1" stop-color="#D500F9"/>
</linearGradient>
<linearGradient id="paint2_linear_26006_8415" x1="115.18" y1="-12.6599" x2="32.9398" y2="74.9201" gradientUnits="userSpaceOnUse">
<stop offset="0.5" stop-color="#2962FF"/>
<stop offset="1" stop-color="#D500F9"/>
</linearGradient>
</defs>
</svg>
