<svg width="87" height="85" viewBox="0 0 87 85" fill="none" xmlns="http://www.w3.org/2000/svg">
<path d="M41.3998 19.4798C41.6707 19.0327 42.0523 18.6631 42.5077 18.4065C42.9632 18.1499 43.4771 18.0151 43.9998 18.0151C44.5225 18.0151 45.0364 18.1499 45.4919 18.4065C45.9473 18.6631 46.3289 19.0327 46.5998 19.4798L53.5298 31.1798C53.5998 31.2988 53.6937 31.402 53.8056 31.4829C53.9175 31.5637 54.0449 31.6206 54.1798 31.6498L67.6198 34.5098C68.1328 34.6129 68.6093 34.8501 69.0007 35.1973C69.3922 35.5444 69.6846 35.9892 69.8483 36.4862C70.0119 36.9831 70.0409 37.5146 69.9322 38.0265C69.8236 38.5383 69.5812 39.0122 69.2298 39.3998L60.0698 49.4998C59.9783 49.6006 59.9089 49.7194 59.8658 49.8485C59.8228 49.9776 59.8071 50.1143 59.8198 50.2498L61.1998 63.7198C61.2479 64.2403 61.1592 64.7644 60.9424 65.24C60.7256 65.7157 60.3883 66.1264 59.9639 66.4316C59.5395 66.7367 59.0427 66.9257 58.5228 66.9798C58.0029 67.0339 57.4779 66.9511 56.9998 66.7398L44.3998 61.2798C44.2706 61.2231 44.1309 61.1938 43.9898 61.1938C43.8487 61.1938 43.709 61.2231 43.5798 61.2798L30.9998 66.7398C30.5213 66.9535 29.9951 67.0381 29.4737 66.9852C28.9523 66.9322 28.4538 66.7437 28.028 66.4382C27.6022 66.1327 27.2638 65.721 27.0465 65.2441C26.8293 64.7671 26.7408 64.2416 26.7898 63.7198L28.1698 50.2498C28.1839 50.1127 28.169 49.9741 28.1259 49.8432C28.0828 49.7122 28.0126 49.5918 27.9198 49.4898L18.7598 39.3898C18.411 39.002 18.1708 38.5289 18.0636 38.0185C17.9565 37.508 17.9861 36.9782 18.1495 36.4829C18.3129 35.9876 18.6044 35.5442 18.9943 35.1977C19.3842 34.8512 19.8587 34.6139 20.3698 34.5098L33.8098 31.6498C33.9447 31.6206 34.0721 31.5637 34.184 31.4829C34.2959 31.402 34.3898 31.2988 34.4598 31.1798L41.3798 19.4798H41.3998ZM44.8698 20.4798C44.7805 20.3285 44.6533 20.203 44.5008 20.1159C44.3482 20.0287 44.1755 19.9829 43.9998 19.9829C43.8241 19.9829 43.6514 20.0287 43.4988 20.1159C43.3463 20.203 43.2191 20.3285 43.1298 20.4798L36.2098 32.1798C35.996 32.5366 35.7105 32.8453 35.3715 33.0862C35.0324 33.3272 34.6471 33.4953 34.2398 33.5798L20.8098 36.4498C20.6391 36.4847 20.4807 36.5639 20.3504 36.6795C20.2202 36.7952 20.1227 36.9432 20.0679 37.1085C20.0132 37.2739 20.003 37.4507 20.0384 37.6213C20.0739 37.7918 20.1537 37.95 20.2698 38.0798L29.4298 48.1798C29.9898 48.7998 30.2698 49.6198 30.1798 50.4498L28.7998 63.9198C28.7831 64.0936 28.8122 64.2687 28.8842 64.4277C28.9562 64.5868 29.0686 64.7242 29.2102 64.8263C29.3517 64.9284 29.5176 64.9917 29.6912 65.0099C29.8648 65.0281 30.0402 65.0005 30.1998 64.9298L42.7798 59.4698C43.1648 59.3025 43.58 59.2161 43.9998 59.2161C44.4196 59.2161 44.8348 59.3025 45.2198 59.4698L57.7998 64.9298C57.9586 64.9999 58.1329 65.0274 58.3056 65.0097C58.4783 64.9919 58.6434 64.9295 58.7847 64.8286C58.9259 64.7277 59.0385 64.5918 59.1113 64.4342C59.1841 64.2766 59.2146 64.1028 59.1998 63.9298L57.8198 50.4498C57.7298 49.6198 58.0098 48.7998 58.5698 48.1698L67.7298 38.0698C67.8434 37.9399 67.921 37.7825 67.955 37.6133C67.989 37.4441 67.9782 37.269 67.9236 37.1052C67.869 36.9415 67.7726 36.7949 67.6439 36.6799C67.5152 36.5649 67.3586 36.4856 67.1898 36.4498L53.7598 33.5798C53.3525 33.4953 52.9672 33.3272 52.6281 33.0862C52.289 32.8453 52.0036 32.5366 51.7898 32.1798L44.8698 20.4798Z" fill="url(#paint0_linear_26006_8414)"/>
<g filter="url(#filter0_f_26006_8414)">
<path d="M42.2602 19.0302C42.4325 18.7198 42.6847 18.4611 42.9907 18.281C43.2966 18.1008 43.6452 18.0059 44.0002 18.0059C44.3553 18.0059 44.7038 18.1008 45.0098 18.281C45.3158 18.4611 45.568 18.7198 45.7402 19.0302L52.6602 31.2202C52.9402 31.7202 53.4202 32.0802 53.9702 32.2002L67.4102 35.1802C68.9102 35.5202 69.5102 37.4002 68.4902 38.5802L59.3202 49.1002C58.9502 49.5302 58.7702 50.1002 58.8202 50.6802L60.2102 64.7202C60.3602 66.3002 58.8102 67.4602 57.4002 66.8202L44.8002 61.1302C44.5458 61.0147 44.2696 60.955 43.9902 60.955C43.7108 60.955 43.4347 61.0147 43.1802 61.1302L30.5902 66.8302C29.1902 67.4602 27.6302 66.3002 27.7902 64.7302L29.1702 50.6802C29.1984 50.3967 29.1686 50.1104 29.0827 49.8388C28.9967 49.5672 28.8564 49.3159 28.6702 49.1002L19.5002 38.5802C19.2626 38.3108 19.0987 37.9845 19.0247 37.633C18.9506 37.2815 18.9688 36.9168 19.0776 36.5744C19.1863 36.232 19.3819 35.9237 19.6452 35.6794C19.9086 35.435 20.2307 35.2631 20.5802 35.1802L34.0202 32.2002C34.2949 32.1372 34.5533 32.0175 34.7789 31.8488C35.0045 31.68 35.1923 31.4659 35.3302 31.2202L42.2502 19.0202L42.2602 19.0302Z" fill="url(#paint1_linear_26006_8414)" fill-opacity="0.3"/>
</g>
<g filter="url(#filter1_f_26006_8414)">
<path d="M41.3998 19.4798C41.6707 19.0327 42.0523 18.6631 42.5077 18.4065C42.9632 18.1499 43.4771 18.0151 43.9998 18.0151C44.5225 18.0151 45.0364 18.1499 45.4919 18.4065C45.9473 18.6631 46.3289 19.0327 46.5998 19.4798L53.5298 31.1798C53.5998 31.2988 53.6937 31.402 53.8056 31.4829C53.9175 31.5637 54.0449 31.6206 54.1798 31.6498L67.6198 34.5098C68.1328 34.6129 68.6093 34.8501 69.0007 35.1973C69.3922 35.5444 69.6846 35.9892 69.8483 36.4862C70.0119 36.9831 70.0409 37.5146 69.9322 38.0265C69.8236 38.5383 69.5812 39.0122 69.2298 39.3998L60.0698 49.4998C59.9783 49.6006 59.9089 49.7194 59.8658 49.8485C59.8228 49.9776 59.8071 50.1143 59.8198 50.2498L61.1998 63.7198C61.2479 64.2403 61.1592 64.7644 60.9424 65.24C60.7256 65.7157 60.3883 66.1264 59.9639 66.4316C59.5395 66.7367 59.0427 66.9257 58.5228 66.9798C58.0029 67.0339 57.4779 66.9511 56.9998 66.7398L44.3998 61.2798C44.2706 61.2231 44.1309 61.1938 43.9898 61.1938C43.8487 61.1938 43.709 61.2231 43.5798 61.2798L30.9998 66.7398C30.5213 66.9535 29.9951 67.0381 29.4737 66.9852C28.9523 66.9322 28.4538 66.7437 28.028 66.4382C27.6022 66.1327 27.2638 65.721 27.0465 65.2441C26.8293 64.7671 26.7408 64.2416 26.7898 63.7198L28.1698 50.2498C28.1839 50.1127 28.169 49.9741 28.1259 49.8432C28.0828 49.7122 28.0126 49.5918 27.9198 49.4898L18.7598 39.3898C18.411 39.002 18.1708 38.5289 18.0636 38.0185C17.9565 37.508 17.9861 36.9782 18.1495 36.4829C18.3129 35.9876 18.6044 35.5442 18.9943 35.1977C19.3842 34.8512 19.8587 34.6139 20.3698 34.5098L33.8098 31.6498C33.9447 31.6206 34.0721 31.5637 34.184 31.4829C34.2959 31.402 34.3898 31.2988 34.4598 31.1798L41.3798 19.4798H41.3998ZM44.8698 20.4798C44.7805 20.3285 44.6533 20.203 44.5008 20.1159C44.3482 20.0287 44.1755 19.9829 43.9998 19.9829C43.8241 19.9829 43.6514 20.0287 43.4988 20.1159C43.3463 20.203 43.2191 20.3285 43.1298 20.4798L36.2098 32.1798C35.996 32.5366 35.7105 32.8453 35.3715 33.0862C35.0324 33.3272 34.6471 33.4953 34.2398 33.5798L20.8098 36.4498C20.6391 36.4847 20.4807 36.5639 20.3504 36.6795C20.2202 36.7952 20.1227 36.9432 20.0679 37.1085C20.0132 37.2739 20.003 37.4507 20.0384 37.6213C20.0739 37.7918 20.1537 37.95 20.2698 38.0798L29.4298 48.1798C29.9898 48.7998 30.2698 49.6198 30.1798 50.4498L28.7998 63.9198C28.7831 64.0936 28.8122 64.2687 28.8842 64.4277C28.9562 64.5868 29.0686 64.7242 29.2102 64.8263C29.3517 64.9284 29.5176 64.9917 29.6912 65.0099C29.8648 65.0281 30.0402 65.0005 30.1998 64.9298L42.7798 59.4698C43.1648 59.3025 43.58 59.2161 43.9998 59.2161C44.4196 59.2161 44.8348 59.3025 45.2198 59.4698L57.7998 64.9298C57.9586 64.9999 58.1329 65.0274 58.3056 65.0097C58.4783 64.9919 58.6434 64.9295 58.7847 64.8286C58.9259 64.7277 59.0385 64.5918 59.1113 64.4342C59.1841 64.2766 59.2146 64.1028 59.1998 63.9298L57.8198 50.4498C57.7298 49.6198 58.0098 48.7998 58.5698 48.1698L67.7298 38.0698C67.8434 37.9399 67.921 37.7825 67.955 37.6133C67.989 37.4441 67.9782 37.269 67.9236 37.1052C67.869 36.9415 67.7726 36.7949 67.6439 36.6799C67.5152 36.5649 67.3586 36.4856 67.1898 36.4498L53.7598 33.5798C53.3525 33.4953 52.9672 33.3272 52.6281 33.0862C52.289 32.8453 52.0036 32.5366 51.7898 32.1798L44.8698 20.4798Z" fill="url(#paint2_linear_26006_8414)"/>
</g>
<defs>
<filter id="filter0_f_26006_8414" x="0.97998" y="0.00585938" width="86.0171" height="84.999" filterUnits="userSpaceOnUse" color-interpolation-filters="sRGB">
<feFlood flood-opacity="0" result="BackgroundImageFix"/>
<feBlend mode="normal" in="SourceGraphic" in2="BackgroundImageFix" result="shape"/>
<feGaussianBlur stdDeviation="9" result="effect1_foregroundBlur_26006_8414"/>
</filter>
<filter id="filter1_f_26006_8414" x="8.00049" y="8.01514" width="71.9961" height="68.9854" filterUnits="userSpaceOnUse" color-interpolation-filters="sRGB">
<feFlood flood-opacity="0" result="BackgroundImageFix"/>
<feBlend mode="normal" in="SourceGraphic" in2="BackgroundImageFix" result="shape"/>
<feGaussianBlur stdDeviation="5" result="effect1_foregroundBlur_26006_8414"/>
</filter>
<linearGradient id="paint0_linear_26006_8414" x1="72.1598" y1="23.8198" x2="25.2798" y2="73.2098" gradientUnits="userSpaceOnUse">
<stop stop-color="#00BCE6"/>
<stop offset="0.5" stop-color="#2962FF"/>
<stop offset="1" stop-color="#D500F9"/>
</linearGradient>
<linearGradient id="paint1_linear_26006_8414" x1="118.26" y1="-22.1398" x2="13.5102" y2="68.4502" gradientUnits="userSpaceOnUse">
<stop offset="0.5" stop-color="#2962FF"/>
<stop offset="1" stop-color="#D500F9"/>
</linearGradient>
<linearGradient id="paint2_linear_26006_8414" x1="118.24" y1="-19.5202" x2="17.2098" y2="71.5098" gradientUnits="userSpaceOnUse">
<stop offset="0.5" stop-color="#2962FF"/>
<stop offset="1" stop-color="#D500F9"/>
</linearGradient>
</defs>
</svg>
